<?xml version="1.0" standalone="no"?>
<!DOCTYPE svg PUBLIC "-//W3C//DTD SVG 20010904//EN"
 "http://www.w3.org/TR/2001/REC-SVG-20010904/DTD/svg10.dtd">
<svg version="1.0" xmlns="http://www.w3.org/2000/svg"
 width="512.000000pt" height="512.000000pt" viewBox="0 0 512.000000 512.000000"
 preserveAspectRatio="xMidYMid meet">
<metadata>
Created by potrace 1.14, written by Peter Selinger 2001-2017
</metadata>
<g transform="translate(0.000000,512.000000) scale(0.100000,-0.100000)"
fill="#000000" stroke="none">
<path d="M2371 5110 c-501 -42 -952 -212 -1346 -507 -422 -317 -737 -759 -898
-1259 -138 -427 -159 -900 -61 -1344 191 -865 846 -1589 1689 -1865 400 -132
849 -167 1243 -99 981 169 1785 906 2037 1867 62 236 78 362 78 622 0 250 -14
390 -59 595 -235 1056 -1126 1858 -2199 1979 -135 16 -367 21 -484 11z m599
-785 l0 -225 -37 0 -38 -1 40 -31 c207 -163 365 -436 406 -701 14 -89 6 -261
-16 -342 -18 -62 -58 -154 -97 -218 l-22 -38 34 -26 c94 -72 163 -169 197
-278 17 -56 18 -109 18 -745 0 -679 0 -686 -22 -755 -43 -138 -134 -244 -264
-309 -107 -54 -155 -58 -650 -54 -429 4 -446 5 -503 26 -167 62 -278 176 -329
337 -22 69 -22 76 -22 755 0 636 1 689 18 745 34 109 103 206 197 278 l35 26
-18 28 c-34 51 -85 167 -103 233 -15 50 -19 99 -18 215 0 134 3 160 28 239 42
138 82 226 146 323 76 114 137 183 218 244 l65 49 -42 0 -41 0 0 225 0 225
410 0 410 0 0 -225z"/>
<path d="M2555 2059 c-3 -8 -4 -174 -3 -369 l3 -355 50 3 c113 6 233 94 289
212 27 57 31 76 31 150 0 74 -4 93 -31 150 -39 82 -102 145 -179 181 -74 34
-152 48 -160 28z"/>
</g>
</svg>
